# xmcd
#
# Track frame offsets:
#	150
#	18468
#	33528
#	52442
#	77168
#	94214
#	113501
#	132905
#	147395
#	168989
#	186524
#	203740
#	222256
#	243580
#
# Disc length: 3488 seconds
#
# Revision: 0
# Processed by: cddbd v1.5.1PL2 Copyright (c) Steve Scherf et al.
# Submitted via: dBpowerAMP V4.0
#
DISCID=d20d9e0e
DTITLE=Keyshia Cole - The Way It Is
DYEAR=2005
DGENRE=
TTITLE0=(I Just Want It) To Be Over
TTITLE1=I Changed My Mind
TTITLE2=I Thought You Had My Back
TTITLE3=I Should Have Cheated
TTITLE4=Guess What
TTITLE5=Love
TTITLE6=You've Changed
TTITLE7=We Could Be
TTITLE8=Situations
TTITLE9=Down and Dirty
TTITLE10=Superstar
TTITLE11=Never
TTITLE12=Love (Extended Version)
TTITLE13=I Changed My Mind (Extended Version)
EXTD=Keyshia Cole's Debut Album
EXTT0=
EXTT1=
EXTT2=
EXTT3=
EXTT4=
EXTT5=
EXTT6=
EXTT7=
EXTT8=
EXTT9=
EXTT10=
EXTT11=
EXTT12=
EXTT13=
PLAYORDER=
